<svg width="839" height="205" viewBox="0 0 839 205" fill="none" xmlns="http://www.w3.org/2000/svg">
<path d="M431.193 64.8092C450.115 64.8332 467.553 78.1866 475.322 97.2389C481.838 113.26 484.847 130.611 481.86 147.776C481.231 151.386 479.54 154.815 478.108 158.047C473.529 168.391 464.239 174.44 454.155 174.4C449.897 174.384 445.497 173.283 441.251 170.961C438.541 169.479 435.406 167.595 433.326 165.141L433.329 165.142V165.141C432.672 164.799 431.514 163.455 430.95 162.879C425.631 157.446 421.831 151.319 417.605 145.042L403.165 123.194C401.718 121.002 400.253 119.097 398.772 116.954C397.569 121.272 395.839 125.004 394.135 129.118L387.784 144.574C386.529 147.614 382.742 157.795 381.132 160.057C379.51 163.97 376.08 167.412 372.298 169.854C370.891 170.763 369.436 171.535 368.006 172.139C360.675 175.218 352.419 175.257 345.059 172.248C339.305 169.893 334.485 165.928 331.636 160.337C327.893 152.987 325.36 144.998 322.199 137.386C319.411 130.673 316.654 123.942 313.855 117.233C312.716 118.758 311.15 121.319 310.028 122.971L299.418 138.745C299.421 138.75 299.423 138.755 299.426 138.76C298.151 141.051 289.258 155.331 287.925 155.995C287.925 155.994 287.925 155.992 287.924 155.991C287.919 155.994 287.915 155.998 287.91 156.001C286.09 159.357 277.855 167.252 274.585 169.295C268.374 173.377 260.572 175.552 253.142 173.797C235.602 169.652 229.498 148.993 230.032 131.675C230.152 127.76 230.61 124.014 231.353 120.67C231.352 120.665 231.351 120.659 231.349 120.654C231.395 116.436 234.29 107.61 235.53 103.436C238.527 93.3476 244.782 82.326 253.395 75.0807C255.758 73.0923 258.297 71.3872 260.997 70.0641C271.052 64.5896 282.883 63.3764 293.84 66.6959C301.466 68.9549 307.101 72.9624 312.418 78.6998C313.525 79.8947 315.676 81.9797 316.489 83.36C316.754 83.6532 317.059 83.9409 317.341 84.2203C317.72 84.0655 317.508 84.1694 317.777 83.8395C330.058 68.7664 349.733 61.1798 368.794 66.5826C372.122 67.5261 376.642 69.0213 379.218 70.8463C383.717 72.9372 392.771 80.5704 396.247 84.2809C398.154 80.4304 405.144 73.6006 408.785 71.3619C416.153 66.8323 423.786 64.7999 431.19 64.8092H431.193ZM381.656 96.1676C374.402 88.0509 365.721 82.5729 354.61 83.0494C344.976 83.8771 335.926 90.2116 330.034 97.5514C329.073 98.7483 328.111 99.8466 327.307 101.165C328.233 104.345 330.076 108.051 331.389 111.147L337.778 126.581L343.583 140.746C345.033 144.358 346.314 147.79 348.124 151.263C350.458 155.743 353.748 156.998 358.659 156.51C361.241 155.784 363.067 154.477 364.366 152.08C366.417 148.294 367.972 143.986 369.583 139.973L376.597 122.803L381.926 110.075C383.006 107.558 385.023 103.426 385.55 100.85C384.582 99.1469 382.961 97.6284 381.656 96.1676ZM283.767 83.0846C278.225 82.5156 272.324 84.883 267.781 87.8864C256.879 95.0972 252.587 109.308 250.17 121.468C248.048 131.74 247.478 143.524 253.353 152.733C257.004 158.457 260.922 156.767 265.376 153.527C272.698 147.281 277.164 139.935 282.351 131.966L291.439 118.044C295.631 111.606 299.956 105.256 304.414 98.9987C300.276 90.8511 293.198 84.095 283.767 83.0846ZM445.401 87.8434C440.859 84.8401 434.957 82.473 429.415 83.0416C419.984 84.052 412.905 90.8081 408.767 98.9557C413.224 105.212 417.551 111.563 421.742 118.001L430.83 131.923C436.017 139.892 440.483 147.238 447.806 153.484C452.259 156.724 456.178 158.413 459.828 152.69C465.703 143.482 465.133 131.696 463.011 121.425C460.594 109.265 456.303 95.0544 445.401 87.8434ZM427.932 0.24085C441.806 -1.4939 454.462 8.33278 456.222 22.2028C457.98 36.0728 448.175 48.7473 434.308 50.5299C420.408 52.3166 407.696 42.4829 405.932 28.5797C404.169 14.676 414.025 1.98024 427.932 0.24085ZM280.277 0.0435843C294.23 -0.768283 306.211 9.8592 307.069 23.8092C307.927 37.7588 297.339 49.7747 283.392 50.6793C269.38 51.5879 257.295 40.9397 256.432 26.9244C255.57 12.909 266.259 0.859788 280.277 0.0435843ZM333.612 14.2662C339.176 2.83898 352.348 -2.69604 364.405 1.32776C376.465 5.35303 383.673 17.6949 381.253 30.1764C378.832 42.6579 367.535 51.4118 354.844 50.6383C346.404 50.1235 338.778 45.4301 334.513 38.1285C332.148 34.078 330.993 29.5206 331.062 24.9674C331.117 21.3109 331.96 17.6565 333.608 14.2692C333.609 14.2685 333.611 14.2669 333.612 14.2662Z" fill="url(#paint0_linear_3277_43234)"/>
<path d="M55.7147 174.468C48.3286 174.684 40.9772 173.38 34.1192 170.638C27.2613 167.896 21.0439 163.775 15.8551 158.531C10.6605 153.35 6.57783 147.169 3.85529 140.365C1.13275 133.561 -0.172716 126.277 0.0183087 118.954C-0.171289 111.631 1.13589 104.346 3.86033 97.5422C6.58477 90.7384 10.6695 84.5582 15.866 79.3776C21.0548 74.134 27.2722 70.0125 34.1302 67.2704C40.9882 64.5283 48.3396 63.2244 55.7256 63.4402C65.0099 63.3725 74.1594 65.6552 82.3169 70.0744C90.2445 74.2784 96.9007 80.5179 101.596 88.147L80.4808 100.348C78.1505 96.1946 74.6358 92.8241 70.382 90.6635C65.841 88.339 60.7971 87.1607 55.6928 87.232C51.5064 87.0369 47.3249 87.7109 43.4135 89.2111C39.5021 90.7112 35.9459 93.005 32.9705 95.9469C30.0923 99.0262 27.8604 102.648 26.4058 106.599C24.9513 110.55 24.3034 114.75 24.5002 118.954C24.3034 123.163 24.9533 127.369 26.4117 131.324C27.8701 135.279 30.1076 138.903 32.9924 141.984C35.9678 144.925 39.5239 147.219 43.4353 148.719C47.3468 150.22 51.5282 150.894 55.7147 150.698C60.848 150.761 65.9171 149.556 70.4694 147.191C74.6962 145.055 78.1862 141.709 80.4917 137.582L101.607 149.783C96.9975 157.428 90.3852 163.676 82.4809 167.856C74.2646 172.284 65.0546 174.559 55.7147 174.468ZM202.169 158.455C197.018 163.66 190.858 167.764 184.063 170.517C177.268 173.271 169.982 174.615 162.648 174.468C155.322 174.609 148.044 173.262 141.257 170.509C134.47 167.756 128.317 163.654 123.171 158.455C117.892 153.334 113.73 147.183 110.943 140.387C108.156 133.591 106.805 126.294 106.974 118.954C106.808 111.613 108.162 104.316 110.953 97.5192C113.744 90.7227 117.91 84.5729 123.193 79.4539C128.339 74.2543 134.492 70.1531 141.279 67.4C148.066 64.647 155.344 63.2997 162.67 63.4402C169.996 63.2997 177.274 64.647 184.061 67.4C190.848 70.1531 197.002 74.2543 202.147 79.4539C207.434 84.571 211.605 90.72 214.399 97.5165C217.194 104.313 218.552 111.611 218.388 118.954C218.552 126.298 217.194 133.596 214.399 140.392C211.605 147.189 207.434 153.338 202.147 158.455H202.169ZM140.33 141.831C143.26 144.729 146.747 147.007 150.582 148.527C154.418 150.048 158.522 150.779 162.648 150.677C166.771 150.788 170.873 150.062 174.705 148.541C178.536 147.02 182.016 144.737 184.933 141.831C187.919 138.833 190.254 135.255 191.794 131.32C193.334 127.384 194.045 123.175 193.885 118.954C194.045 114.733 193.334 110.524 191.794 106.589C190.254 102.653 187.919 99.0756 184.933 96.0776C182.016 93.1717 178.536 90.8886 174.705 89.3678C170.873 87.847 166.771 87.1202 162.648 87.232C158.533 87.1262 154.439 87.8558 150.615 89.3765C146.792 90.8971 143.319 93.1771 140.407 96.0776C137.421 99.0756 135.086 102.653 133.546 106.589C132.006 110.524 131.295 114.733 131.456 118.954C131.293 123.169 131.997 127.372 133.523 131.306C135.049 135.24 137.365 138.822 140.33 141.831ZM520.259 85.4018C519.01 86.6847 517.51 87.6985 515.852 88.3805C514.194 89.0625 512.413 89.3983 510.619 89.3671C508.809 89.3909 507.013 89.0445 505.341 88.3494C503.67 87.6543 502.16 86.6252 500.903 85.3256C499.599 84.0731 498.567 82.5676 497.869 80.9019C497.172 79.2363 496.825 77.4458 496.848 75.6411C496.826 73.8356 497.175 72.0447 497.875 70.379C498.574 68.7133 499.608 67.2082 500.914 65.9566C502.171 64.657 503.681 63.6279 505.352 62.9328C507.023 62.2377 508.82 61.8913 510.63 61.9151C512.441 61.8913 514.237 62.2377 515.909 62.9328C517.58 63.6279 519.09 64.657 520.347 65.9566C521.651 67.2091 522.683 68.7146 523.38 70.3803C524.078 72.0459 524.425 73.8364 524.401 75.6411C524.417 77.4638 524.057 79.2703 523.345 80.9491C522.632 82.6279 521.582 84.1433 520.259 85.4018ZM499.144 172.333V96.0776H522.095V172.333H499.144ZM583.759 93.9425C587.562 93.8462 591.344 94.5425 594.861 95.987C598.379 97.4314 601.555 99.592 604.186 102.331C607.025 105.457 609.212 109.114 610.621 113.09C612.03 117.066 612.633 121.281 612.394 125.491V172.333H589.443V128.868C589.567 126.986 589.298 125.1 588.652 123.328C588.007 121.556 586.999 119.937 585.694 118.573C584.417 117.375 582.914 116.441 581.273 115.825C579.631 115.21 577.883 114.926 576.13 114.989C574.218 114.893 572.307 115.197 570.519 115.879C568.731 116.562 567.106 117.609 565.748 118.954C562.981 122.22 561.607 126.435 561.922 130.698V172.333H538.97V96.0776H561.922V103.246C564.525 100.038 567.875 97.5126 571.682 95.8911C575.488 94.2695 579.634 93.6005 583.759 93.9425ZM684.31 96.0776H706.65V168.521C706.993 173.666 706.103 178.819 704.055 183.554C702.006 188.289 698.857 192.471 694.868 195.755C686.678 202.018 676.573 205.276 666.255 204.982C649.015 204.982 636.927 198.83 629.991 186.528L649.554 175.231C651.209 178.351 653.74 180.924 656.838 182.634C659.936 184.344 663.466 185.118 666.998 184.861C671.613 185.132 676.158 183.631 679.698 180.667C681.289 179.091 682.522 177.193 683.314 175.101C684.106 173.01 684.438 170.773 684.288 168.542V161.505C681.611 164.794 678.192 167.406 674.31 169.129C670.428 170.851 666.192 171.636 661.948 171.418C656.92 171.531 651.925 170.576 647.295 168.617C642.665 166.658 638.506 163.74 635.095 160.056C631.58 156.423 628.819 152.136 626.968 147.438C625.117 142.741 624.213 137.726 624.307 132.68C624.213 127.635 625.117 122.62 626.968 117.922C628.819 113.225 631.58 108.937 635.095 105.305C638.506 101.621 642.665 98.7025 647.295 96.7436C651.925 94.7846 656.92 93.8298 661.948 93.9425C666.192 93.7249 670.428 94.5094 674.31 96.2321C678.192 97.9547 681.611 100.567 684.288 103.856L684.31 96.0776ZM652.483 145.491C656.099 148.81 660.883 150.572 665.796 150.393C670.708 150.572 675.492 148.81 679.108 145.491C680.838 143.847 682.197 141.854 683.094 139.645C683.991 137.436 684.405 135.062 684.31 132.68C684.405 130.299 683.991 127.925 683.094 125.716C682.197 123.507 680.838 121.514 679.108 119.869C675.492 116.55 670.708 114.788 665.796 114.967C660.883 114.788 656.099 116.55 652.483 119.869C650.753 121.514 649.394 123.507 648.497 125.716C647.6 127.925 647.186 130.299 647.281 132.68C647.183 135.06 647.594 137.433 648.487 139.642C649.38 141.851 650.735 143.845 652.462 145.491H652.483ZM723.459 172.333V61H746.411V172.333H723.459ZM783.746 143.356C786.398 150.473 792.519 154.032 802.107 154.032C804.826 154.171 807.543 153.725 810.074 152.725C812.605 151.725 814.89 150.194 816.775 148.237L835.136 158.76C831.345 163.952 826.306 168.112 820.481 170.857C814.656 173.602 808.233 174.843 801.801 174.468C796.153 174.738 790.509 173.864 785.21 171.898C779.91 169.932 775.066 166.915 770.969 163.03C767.16 159.273 764.167 154.776 762.176 149.817C760.185 144.858 759.238 139.544 759.395 134.205C759.246 128.894 760.179 123.608 762.139 118.667C764.098 113.725 767.043 109.231 770.795 105.457C774.621 101.632 779.198 98.6344 784.24 96.6531C789.282 94.6717 794.68 93.749 800.096 93.9425C805.277 93.8108 810.427 94.7682 815.212 96.7521C819.997 98.736 824.309 101.702 827.868 105.457C831.542 109.274 834.416 113.782 836.325 118.718C838.233 123.653 839.137 128.918 838.983 134.205C839.002 137.279 838.694 140.347 838.065 143.356H783.746ZM783.287 126.275H816.184C815.428 122.637 813.359 119.401 810.37 117.181C807.381 114.96 803.679 113.909 799.965 114.226C796.188 113.856 792.406 114.877 789.333 117.097C786.26 119.317 784.109 122.582 783.287 126.275Z" fill="#252F45"/>
<defs>
<linearGradient id="paint0_linear_3277_43234" x1="465.5" y1="16.5" x2="210.5" y2="140.5" gradientUnits="userSpaceOnUse">
<stop stop-color="#E47E33"/>
<stop offset="0.50761" stop-color="#E4008D"/>
<stop offset="0.946056" stop-color="#0B61E4"/>
</linearGradient>
</defs>
</svg>
