<svg xmlns="http://www.w3.org/2000/svg" xmlns:xlink="http://www.w3.org/1999/xlink" width="99" height="99" viewBox="0 0 99 99">
  <defs>
    <linearGradient id="linear-gradient" x1="0.5" x2="0.5" y2="1" gradientUnits="objectBoundingBox">
      <stop offset="0" stop-color="#f44236"/>
      <stop offset="1" stop-color="#ff9500"/>
    </linearGradient>
    <linearGradient id="linear-gradient-2" x1="0.905" y1="-0.15" x2="-0.406" y2="1.784" gradientUnits="objectBoundingBox">
      <stop offset="0" stop-color="#5856d6"/>
      <stop offset="1" stop-color="#ff9500"/>
    </linearGradient>
    <linearGradient id="linear-gradient-3" x1="0.856" y1="-0.152" x2="-0.503" y2="2.339" gradientUnits="objectBoundingBox">
      <stop offset="0" stop-color="#f6bf6a"/>
      <stop offset="1" stop-color="#ff3b30"/>
    </linearGradient>
    <linearGradient id="linear-gradient-4" x1="0.769" y1="-0.129" x2="-0.186" y2="1.221" gradientUnits="objectBoundingBox">
      <stop offset="0" stop-color="#009788"/>
      <stop offset="1" stop-color="#af52de"/>
    </linearGradient>
  </defs>
  <g id="Group_20664" data-name="Group 20664" transform="translate(21379 14567)">
    <rect id="Rectangle_17573" data-name="Rectangle 17573" width="99" height="99" transform="translate(-21379 -14567)" fill="none"/>
    <g id="Group_20663" data-name="Group 20663" transform="translate(-21371 -14560)">
      <path id="Subtraction_181" data-name="Subtraction 181" d="M11.119,49.313H2.52v0a33.11,33.11,0,0,1-1.061-3.45A47.158,47.158,0,0,1,.078,37.089a38.947,38.947,0,0,1,.848-11.03A12.14,12.14,0,0,0,13.854,23.3a12.151,12.151,0,0,0,.422-16.74,35.628,35.628,0,0,1,8.7-4.353A42.14,42.14,0,0,1,36.435,0a29.23,29.23,0,0,1,3.588.186L37.787,6.511a43.9,43.9,0,0,0-8.674,1.648,30.892,30.892,0,0,0-3.392,1.2h0V19.9h.005c.107-.009.406-.03.851-.03a17.186,17.186,0,0,1,6.081,1.144L28.583,32.539a10.375,10.375,0,0,0-1.372-.076,16.709,16.709,0,0,0-4.69.691A16.415,16.415,0,0,0,16.412,36.5a14.163,14.163,0,0,0-3.23,4.079,17.363,17.363,0,0,0-1.552,4.174,18.411,18.411,0,0,0-.511,4.56Z" transform="translate(7.534 0)" fill="url(#linear-gradient)"/>
      <circle id="Ellipse_1190" data-name="Ellipse 1190" cx="10.968" cy="10.968" r="10.968" transform="translate(1.828 3.737)" fill="#f44236"/>
      <path id="Subtraction_181-2" data-name="Subtraction 181" d="M11.119,49.313H2.52v0a33.11,33.11,0,0,1-1.061-3.45A47.158,47.158,0,0,1,.078,37.089a38.947,38.947,0,0,1,.848-11.03A12.14,12.14,0,0,0,13.854,23.3a12.151,12.151,0,0,0,.422-16.74,35.628,35.628,0,0,1,8.7-4.353A42.14,42.14,0,0,1,36.435,0a29.23,29.23,0,0,1,3.588.186L37.787,6.511a43.9,43.9,0,0,0-8.674,1.648,30.892,30.892,0,0,0-3.392,1.2h0V19.9h.005c.107-.009.406-.03.851-.03a17.186,17.186,0,0,1,6.081,1.144L28.583,32.539a10.375,10.375,0,0,0-1.372-.076,16.709,16.709,0,0,0-4.69.691A16.415,16.415,0,0,0,16.412,36.5a14.163,14.163,0,0,0-3.23,4.079,17.363,17.363,0,0,0-1.552,4.174,18.411,18.411,0,0,0-.511,4.56Z" transform="translate(76.09 84.045) rotate(180)" fill="url(#linear-gradient-2)"/>
      <circle id="Ellipse_1190-2" data-name="Ellipse 1190" cx="10.968" cy="10.968" r="10.968" transform="translate(81.796 80.308) rotate(180)" fill="#5856d6"/>
      <path id="Subtraction_181-3" data-name="Subtraction 181" d="M11.119,49.313H2.52v0a33.11,33.11,0,0,1-1.061-3.45A47.158,47.158,0,0,1,.078,37.089a38.947,38.947,0,0,1,.848-11.03A12.14,12.14,0,0,0,13.854,23.3a12.151,12.151,0,0,0,.422-16.74,35.628,35.628,0,0,1,8.7-4.353A42.14,42.14,0,0,1,36.435,0a29.23,29.23,0,0,1,3.588.186L37.787,6.511a43.9,43.9,0,0,0-8.674,1.648,30.892,30.892,0,0,0-3.392,1.2h0V19.9h.005c.107-.009.406-.03.851-.03a17.186,17.186,0,0,1,6.081,1.144L28.583,32.539a10.375,10.375,0,0,0-1.372-.076,16.709,16.709,0,0,0-4.69.691A16.415,16.415,0,0,0,16.412,36.5a14.163,14.163,0,0,0-3.23,4.079,17.363,17.363,0,0,0-1.552,4.174,18.411,18.411,0,0,0-.511,4.56Z" transform="translate(83.624 7.65) rotate(90)" fill="url(#linear-gradient-3)"/>
      <circle id="Ellipse_1190-3" data-name="Ellipse 1190" cx="10.968" cy="10.968" r="10.968" transform="translate(79.887 1.944) rotate(90)" fill="#f6bf6a"/>
      <path id="Subtraction_181-4" data-name="Subtraction 181" d="M11.119,49.313H2.52v0a33.11,33.11,0,0,1-1.061-3.45A47.158,47.158,0,0,1,.078,37.089a38.947,38.947,0,0,1,.848-11.03A12.14,12.14,0,0,0,13.854,23.3a12.151,12.151,0,0,0,.422-16.74,35.628,35.628,0,0,1,8.7-4.353A42.14,42.14,0,0,1,36.435,0a29.23,29.23,0,0,1,3.588.186L37.787,6.511a43.9,43.9,0,0,0-8.674,1.648,30.892,30.892,0,0,0-3.392,1.2h0V19.9h.005c.107-.009.406-.03.851-.03a17.186,17.186,0,0,1,6.081,1.144L28.583,32.539a10.375,10.375,0,0,0-1.372-.076,16.709,16.709,0,0,0-4.69.691A16.415,16.415,0,0,0,16.412,36.5a14.163,14.163,0,0,0-3.23,4.079,17.363,17.363,0,0,0-1.552,4.174,18.411,18.411,0,0,0-.511,4.56Z" transform="translate(0 76.395) rotate(-90)" fill="url(#linear-gradient-4)"/>
      <circle id="Ellipse_1190-4" data-name="Ellipse 1190" cx="10.968" cy="10.968" r="10.968" transform="translate(3.737 82.1) rotate(-90)" fill="#009788"/>
    </g>
  </g>
</svg>
